<svg height="64" viewBox="0 0 64 64" width="64" xmlns="http://www.w3.org/2000/svg"><g fill="none" fill-rule="evenodd"><path d="m15.0774842 13.9909141c-.0427933-1.0995515.8124084-1.9909141 1.9222231-1.9909141h32.0005854c1.1044079 0 1.9651059.8890643 1.9222231 1.9909141l-1.7909775 46.0181718c-.0427934 1.0995515-.9697502 1.9909141-2.0859902 1.9909141h-28.0910962c-1.1092672 0-2.0431074-.8890643-2.0859902-1.9909141z" fill="#0a3586"/><circle cx="33" cy="46" fill="#ed9111" r="11"/><circle cx="33" cy="46" fill="#0a3586" r="4"/><circle cx="33" cy="24" fill="#ed9111" r="6"/><circle cx="33" cy="24" fill="#0a3586" r="2"/><ellipse cx="7.5" cy="11" fill="#e43535" rx="3.5" ry="2"/><path d="m10.049 10.478-.049-6.478 2.946 1.363" stroke="#e43535" stroke-linecap="round" stroke-width="2"/><ellipse cx="57.5" cy="21" fill="#e43535" rx="3.5" ry="2"/><path d="m60.049 20.478-.049-6.478 2.946 1.363" stroke="#e43535" stroke-linecap="round" stroke-width="2"/><ellipse cx="47.5" cy="41" fill="#e43535" rx="3.5" ry="2"/><path d="m50.049 40.478-.049-6.478 2.946 1.363" stroke="#e43535" stroke-linecap="round" stroke-width="2"/><ellipse cx="17.5" cy="21" fill="#e43535" rx="3.5" ry="2"/><path d="m20.049 20.478-.049-6.478 2.946 1.363" stroke="#e43535" stroke-linecap="round" stroke-width="2"/></g></svg>